<svg width="19" height="19" viewBox="0 0 19 19" fill="none" xmlns="http://www.w3.org/2000/svg">
<path d="M9.70538 1.85375C6.95095 1.85375 4.46855 3.31598 3.10834 5.66236C1.71411 8.04274 1.71411 10.9332 3.10834 13.2796C4.46855 15.6599 6.95095 17.0882 9.70538 17.0882C12.4258 17.0882 14.9082 15.6599 16.2684 13.2796C17.6626 10.9332 17.6626 8.04274 16.2684 5.66236C14.9082 3.31598 12.4258 1.85375 9.70538 1.85375ZM9.70538 18.1763C6.57689 18.1763 3.72043 16.5441 2.15618 13.8237C0.591935 11.1372 0.591935 7.8387 2.15618 5.11827C3.72043 2.43184 6.57689 0.765579 9.70538 0.765579C12.7999 0.765579 15.6563 2.43184 17.2206 5.11827C18.7848 7.8387 18.7848 11.1372 17.2206 13.8237C15.6563 16.5441 12.7999 18.1763 9.70538 18.1763ZM8.07312 12.7355H9.1613V9.47096H8.34517C8.03912 9.47096 7.80108 9.23292 7.80108 8.92688C7.80108 8.65483 8.03912 8.38279 8.34517 8.38279H9.70538C9.97743 8.38279 10.2495 8.65483 10.2495 8.92688V12.7355H11.3376C11.6097 12.7355 11.8817 13.0075 11.8817 13.2796C11.8817 13.5856 11.6097 13.8237 11.3376 13.8237H8.07312C7.76708 13.8237 7.52904 13.5856 7.52904 13.2796C7.52904 13.0075 7.76708 12.7355 8.07312 12.7355ZM9.70538 7.02257C9.22931 7.02257 8.88925 6.68252 8.88925 6.20644C8.88925 5.76437 9.22931 5.39031 9.70538 5.39031C10.1475 5.39031 10.5215 5.76437 10.5215 6.20644C10.5215 6.68252 10.1475 7.02257 9.70538 7.02257Z" fill="#878787"/>
</svg>
