<svg width="244" height="55" viewBox="0 0 244 55" fill="none" xmlns="http://www.w3.org/2000/svg">
<rect x="0.00683594" y="0.169312" width="243.994" height="54.4026" rx="27.2013" fill="black"/>
<path d="M99.6887 18.4066H96.1962C95.2961 18.4066 94.5664 19.1363 94.5664 20.0364C94.5664 29.0377 101.863 36.3347 110.865 36.3347C111.765 36.3347 112.495 35.605 112.495 34.7049V31.2124L108.653 28.6512L106.661 30.6432C106.315 30.9893 105.798 31.0969 105.363 30.8723C104.626 30.4914 103.429 29.7758 102.25 28.6512C101.042 27.4999 100.335 26.2593 99.9798 25.5086C99.7808 25.0879 99.896 24.6022 100.225 24.2731L102.25 22.2484L99.6887 18.4066Z" fill="white"/>
<path d="M130.207 34.0866C128.959 34.0866 127.879 33.8166 126.967 33.2766C126.067 32.7246 125.371 31.9626 124.879 30.9906C124.387 30.0066 124.141 28.8726 124.141 27.5886C124.141 26.2926 124.387 25.1586 124.879 24.1866C125.371 23.2026 126.067 22.4346 126.967 21.8826C127.879 21.3306 128.959 21.0546 130.207 21.0546C131.683 21.0546 132.889 21.4146 133.825 22.1346C134.761 22.8546 135.355 23.8626 135.607 25.1586H133.483C133.315 24.4266 132.955 23.8446 132.403 23.4126C131.851 22.9806 131.113 22.7646 130.189 22.7646C128.929 22.7646 127.933 23.1966 127.201 24.0606C126.469 24.9126 126.103 26.0886 126.103 27.5886C126.103 29.0766 126.469 30.2466 127.201 31.0986C127.933 31.9506 128.929 32.3766 130.189 32.3766C131.113 32.3766 131.851 32.1726 132.403 31.7646C132.955 31.3566 133.315 30.7986 133.483 30.0906H135.607C135.355 31.3386 134.761 32.3166 133.825 33.0246C132.889 33.7326 131.683 34.0866 130.207 34.0866ZM140.657 34.0866C139.901 34.0866 139.277 33.9606 138.785 33.7086C138.293 33.4566 137.927 33.1266 137.687 32.7186C137.447 32.2986 137.327 31.8426 137.327 31.3506C137.327 30.4866 137.663 29.8026 138.335 29.2986C139.007 28.7946 139.967 28.5426 141.215 28.5426H143.555V28.3806C143.555 27.6846 143.363 27.1626 142.979 26.8146C142.607 26.4666 142.121 26.2926 141.521 26.2926C140.993 26.2926 140.531 26.4246 140.135 26.6886C139.751 26.9406 139.517 27.3186 139.433 27.8226H137.525C137.585 27.1746 137.801 26.6226 138.173 26.1666C138.557 25.6986 139.037 25.3446 139.613 25.1046C140.201 24.8526 140.843 24.7266 141.539 24.7266C142.787 24.7266 143.753 25.0566 144.437 25.7166C145.121 26.3646 145.463 27.2526 145.463 28.3806V33.8706H143.807L143.645 32.3406C143.393 32.8326 143.027 33.2466 142.547 33.5826C142.067 33.9186 141.437 34.0866 140.657 34.0866ZM141.035 32.5386C141.551 32.5386 141.983 32.4186 142.331 32.1786C142.691 31.9266 142.967 31.5966 143.159 31.1886C143.363 30.7806 143.489 30.3306 143.537 29.8386H141.413C140.657 29.8386 140.117 29.9706 139.793 30.2346C139.481 30.4986 139.325 30.8286 139.325 31.2246C139.325 31.6326 139.475 31.9566 139.775 32.1966C140.087 32.4246 140.507 32.5386 141.035 32.5386ZM147.687 33.8706V20.9106H149.595V33.8706H147.687ZM152.012 33.8706V20.9106H153.92V33.8706H152.012Z" fill="white"/>
</svg>
