<svg width="21" height="21" viewBox="0 0 21 21" fill="none" xmlns="http://www.w3.org/2000/svg">
<g clip-path="url(#clip0_375_3502)">
<path d="M6.60657 16.1837C7.51705 16.1837 8.25513 15.4456 8.25513 14.5352C8.25513 13.6247 7.51705 12.8866 6.60657 12.8866C5.69609 12.8866 4.95801 13.6247 4.95801 14.5352C4.95801 15.4456 5.69609 16.1837 6.60657 16.1837Z" stroke="#7A7A7A" stroke-width="1.23642" stroke-linecap="round" stroke-linejoin="round"/>
<path d="M14.8497 16.1837C15.7602 16.1837 16.4983 15.4456 16.4983 14.5352C16.4983 13.6247 15.7602 12.8866 14.8497 12.8866C13.9393 12.8866 13.2012 13.6247 13.2012 14.5352C13.2012 15.4456 13.9393 16.1837 14.8497 16.1837Z" stroke="#7A7A7A" stroke-width="1.23642" stroke-linecap="round" stroke-linejoin="round"/>
<path d="M4.54599 14.5351H3.30957V9.58942M3.30957 9.58942L4.95813 5.46802H12.3767L15.6738 9.58942M3.30957 9.58942H15.6738M15.6738 9.58942H16.4981C16.9353 9.58942 17.3546 9.76311 17.6638 10.0723C17.9729 10.3814 18.1466 10.8008 18.1466 11.238V14.5351H16.9102M12.7888 14.5351H8.6674M10.7281 9.58942V5.46802" stroke="#7A7A7A" stroke-width="1.54553" stroke-linecap="round" stroke-linejoin="round"/>
</g>
<defs>
<clipPath id="clip0_375_3502">
<rect width="19.7827" height="19.7827" fill="white" transform="translate(0.836914 0.522339)"/>
</clipPath>
</defs>
</svg>
