<svg width="20" height="16" viewBox="0 0 20 16" fill="none" xmlns="http://www.w3.org/2000/svg">
<path d="M16.0938 7C15.4688 7 14.9062 6.8125 14.4688 6.46875C14.3125 6.375 14.1875 6.25 14.0625 6.09375C13.9375 6.25 13.8125 6.375 13.6562 6.46875C13.1875 6.8125 12.625 7 12.0312 7C11.4062 7 10.8438 6.8125 10.4062 6.46875C10.25 6.375 10.0938 6.25 9.96875 6.125C9.84375 6.25 9.71875 6.375 9.5625 6.5C9.125 6.8125 8.5625 7.03125 7.9375 7.03125C7.34375 7.03125 6.78125 6.8125 6.3125 6.5C6.15625 6.375 6.03125 6.25 5.90625 6.125C5.78125 6.25 5.65625 6.375 5.5 6.5C5.03125 6.8125 4.46875 7.03125 3.875 7.03125C3.75 7.03125 3.625 7 3.5 7C1.75 6.75 0.9375 4.71875 1.875 3.25L4 0H16L18.0938 3.25C19.0312 4.71875 18.2188 6.75 16.4688 7C16.3438 7 16.2188 7 16.0938 7ZM3.875 5.5C4.25 5.5 4.5625 5.34375 4.8125 5.09375L5.90625 3.875L7.03125 5.09375C7.25 5.34375 7.59375 5.5 7.9375 5.5C8.3125 5.5 8.65625 5.34375 8.875 5.09375L10 3.875L11.0938 5.09375C11.3125 5.34375 11.6562 5.5 12.0312 5.5C12.4062 5.5 12.7188 5.34375 12.9375 5.09375L14.0625 3.875L15.1562 5.09375C15.4062 5.34375 15.7188 5.5 16.0938 5.5C16.1562 5.5 16.2188 5.5 16.2812 5.5C16.5625 5.46875 16.7812 5.28125 16.9062 5C17.0312 4.6875 17.0312 4.34375 16.8438 4.0625L15.1875 1.5H4.8125L3.125 4.0625C2.96875 4.34375 2.9375 4.6875 3.0625 5C3.1875 5.28125 3.40625 5.46875 3.6875 5.5C3.75 5.5 3.8125 5.5 3.875 5.5ZM4.5 10.5H15.5V7.96875C15.6875 8 15.875 8 16.0938 8C16.2812 8 16.4375 8 16.5938 7.96875C16.7188 7.96875 16.875 7.9375 17 7.90625V10.5V12V14.5V16H15.5H4.5H3V14.5V12V10.5V7.90625C3.09375 7.9375 3.21875 7.96875 3.375 7.96875C3.53125 8 3.6875 8 3.875 8C4.09375 8 4.28125 8 4.5 7.96875V10.5ZM15.5 12H4.5V14.5H15.5V12Z" fill="#67696B"/>
</svg>
