<svg width="16" height="19" viewBox="0 0 16 19" fill="none" xmlns="http://www.w3.org/2000/svg">
<path d="M11.077 5.11827C11.077 3.96209 10.4309 2.90792 9.44478 2.29582C8.42462 1.71773 7.16642 1.71773 6.18026 2.29582C5.1601 2.90792 4.548 3.96209 4.548 5.11827C4.548 6.30846 5.1601 7.36263 6.18026 7.97472C7.16642 8.55282 8.42462 8.55282 9.44478 7.97472C10.4309 7.36263 11.077 6.30846 11.077 5.11827ZM3.45983 5.11827C3.45983 3.58803 4.27596 2.1598 5.63618 1.37768C6.96239 0.595552 8.62865 0.595552 9.98887 1.37768C11.3151 2.1598 12.1652 3.58803 12.1652 5.11827C12.1652 6.68252 11.3151 8.11075 9.98887 8.89287C8.62865 9.67499 6.96239 9.67499 5.63618 8.89287C4.27596 8.11075 3.45983 6.68252 3.45983 5.11827ZM1.28349 17.0882H14.3416C14.2735 14.4017 12.0632 12.1914 9.34277 12.1914H6.24827C3.52784 12.1914 1.31749 14.4017 1.28349 17.0882ZM0.195312 17.1902C0.195312 13.8237 2.88174 11.1032 6.24827 11.1032H9.34277C12.7093 11.1032 15.4297 13.8237 15.4297 17.1902C15.4297 17.7343 14.9537 18.1763 14.4096 18.1763H1.18147C0.637383 18.1763 0.195312 17.7343 0.195312 17.1902Z" fill="#828282"/>
</svg>
