<svg width="22" height="19" viewBox="0 0 22 19" fill="none" xmlns="http://www.w3.org/2000/svg">
<path d="M4.35269 5.11827C4.35269 6.30846 4.96479 7.36263 5.98495 7.97472C6.97111 8.55282 8.22931 8.55282 9.24947 7.97472C10.2356 7.36263 10.8817 6.30846 10.8817 5.11827C10.8817 3.96209 10.2356 2.90792 9.24947 2.29582C8.22931 1.71773 6.97111 1.71773 5.98495 2.29582C4.96479 2.90792 4.35269 3.96209 4.35269 5.11827ZM9.14745 12.1914H6.05296C3.33253 12.1914 1.12218 14.4017 1.08817 17.0882H14.1462C14.0782 14.4017 11.8679 12.1914 9.14745 12.1914ZM7.61721 9.47096C6.05296 9.47096 4.62473 8.65483 3.84261 7.29462C3.06049 5.96841 3.06049 4.30214 3.84261 2.94193C4.62473 1.61571 6.05296 0.765579 7.61721 0.765579C9.14745 0.765579 10.5757 1.61571 11.3578 2.94193C12.1399 4.30214 12.1399 5.96841 11.3578 7.29462C10.5757 8.65483 9.14745 9.47096 7.61721 9.47096ZM6.05296 11.1032H9.14745C12.514 11.1032 15.2344 13.8237 15.2344 17.1902C15.2344 17.7343 14.7583 18.1763 14.2143 18.1763H0.986157C0.44207 18.1763 0 17.7343 0 17.1902C0 13.8237 2.68643 11.1032 6.05296 11.1032ZM20.7093 18.1763H16.0506C16.2206 17.9043 16.3226 17.5642 16.3226 17.1902C16.3226 17.1562 16.3226 17.1222 16.3226 17.0882H20.6753C20.6413 14.7078 18.669 12.7355 16.2546 12.7355H14.7583C14.4523 12.3614 14.1122 11.9874 13.7382 11.6813C13.8742 11.6813 14.0102 11.6473 14.1803 11.6473H16.2546C19.2811 11.6473 21.7635 14.1297 21.7635 17.1562C21.7635 17.7343 21.2874 18.1763 20.7093 18.1763ZM14.6903 9.47096C13.6362 9.47096 12.684 9.0629 11.9699 8.38279C12.2079 8.07674 12.412 7.73669 12.548 7.39663C13.0581 8.00873 13.8062 8.38279 14.6903 8.38279C16.1866 8.38279 17.4108 7.1926 17.4108 5.66236C17.4108 4.16612 16.1866 2.94193 14.6903 2.94193C13.9762 2.94193 13.3301 3.21397 12.854 3.65604C12.752 3.28198 12.582 2.94193 12.412 2.60187C13.0581 2.1598 13.8402 1.85375 14.6903 1.85375C16.7647 1.85375 18.4989 3.58803 18.4989 5.66236C18.4989 7.77069 16.7647 9.47096 14.6903 9.47096Z" fill="#828282"/>
</svg>
