<svg width="19" height="14" viewBox="0 0 19 14" fill="none" xmlns="http://www.w3.org/2000/svg">
<path d="M2.79158 2.0301C2.17948 2.0301 1.70341 2.54018 1.70341 3.11827V4.47849L8.33446 9.37527C8.91255 9.78333 9.69468 9.78333 10.2728 9.37527L16.9378 4.47849V3.11827C16.9378 2.54018 16.4277 2.0301 15.8497 2.0301H2.79158ZM1.70341 5.8387V11.8237C1.70341 12.4358 2.17948 12.9118 2.79158 12.9118H15.8497C16.4277 12.9118 16.9378 12.4358 16.9378 11.8237V5.8387L10.9189 10.2594C9.96672 10.9395 8.64051 10.9395 7.68836 10.2594L1.70341 5.8387ZM0.615234 3.11827C0.615234 1.92808 1.56739 0.941925 2.79158 0.941925H15.8497C17.0398 0.941925 18.026 1.92808 18.026 3.11827V11.8237C18.026 13.0478 17.0398 14 15.8497 14H2.79158C1.56739 14 0.615234 13.0478 0.615234 11.8237V3.11827Z" fill="#828282"/>
</svg>
