<svg width="16" height="17" viewBox="0 0 16 17" fill="none" xmlns="http://www.w3.org/2000/svg">
<path d="M8.28323 1.94193C4.67865 1.94193 1.75419 4.86639 1.75419 8.47096C1.75419 12.0755 4.67865 15 8.28323 15C11.6158 15 14.3702 12.4836 14.7443 9.25309C14.7443 9.18508 14.7443 9.15107 14.7102 9.11707C14.6762 9.04905 14.6082 9.01505 14.5402 9.01505H8.89532C8.58927 9.01505 8.35124 8.77701 8.35124 8.47096C8.35124 8.19892 8.58927 7.92688 8.89532 7.92688H14.5402C15.2543 7.92688 15.9344 8.53897 15.8324 9.3551C15.3904 13.1637 12.1938 16.0882 8.28323 16.0882C4.06656 16.0882 0.666016 12.6876 0.666016 8.47096C0.666016 4.2883 4.06656 0.853752 8.28323 0.853752C10.2215 0.853752 11.9898 1.60187 13.35 2.79206C13.5541 2.99609 13.5881 3.33615 13.384 3.57418C13.18 3.81222 12.84 3.81222 12.6359 3.60819C11.4797 2.58803 9.94949 1.94193 8.28323 1.94193Z" fill="#828282"/>
</svg>
