<svg width="16" height="21" viewBox="0 0 16 21" fill="none" xmlns="http://www.w3.org/2000/svg">
<path d="M8.11628 20.0987C8.11628 20.0987 0.633723 11.9926 0.633723 7.62775C0.633723 3.49675 3.98529 0.145191 8.11628 0.145191C12.2473 0.145191 15.5988 3.49675 15.5988 7.62775C15.5988 11.9926 8.11628 20.0987 8.11628 20.0987ZM8.11628 5.13356C7.21993 5.13356 6.40153 5.64019 5.93387 6.38066C5.50518 7.16009 5.50518 8.13438 5.93387 8.87484C6.40153 9.65427 7.21993 10.1219 8.11628 10.1219C8.97366 10.1219 9.79206 9.65427 10.2597 8.87484C10.6884 8.13438 10.6884 7.16009 10.2597 6.38066C9.79206 5.64019 8.97366 5.13356 8.11628 5.13356Z" fill="#7A7A7A"/>
</svg>
