<svg width="154" height="44" viewBox="0 0 154 44" fill="none" xmlns="http://www.w3.org/2000/svg">
<path d="M24.4073 14.1041H18.307L17.5609 0.873779C18.3357 0.992129 19.0913 1.16584 19.8239 1.3949C20.5566 1.62396 21.2663 1.90647 21.9454 2.23671L24.4073 14.1022V14.1041Z" fill="url(#paint0_linear_295_150)"/>
<path d="M12.9506 0.873779L12.2046 14.1041H6.10422L8.56808 2.24052C9.92818 1.57815 11.4011 1.10857 12.9506 0.873779Z" fill="url(#paint1_linear_295_150)"/>
<path d="M17.5611 0.874146C16.8093 0.761523 16.0384 0.700439 15.256 0.700439C14.4736 0.700439 13.7008 0.761523 12.949 0.874146L12.2029 14.1045H18.3052L17.5611 0.874146Z" fill="#CAF4FF"/>
<path d="M27.4586 20.046C26.7719 20.046 26.1387 19.8207 25.6298 19.4389C25.5476 19.3779 25.4711 19.3149 25.3964 19.2442C23.9981 23.5029 19.9828 26.58 15.2464 26.58C10.51 26.58 6.50428 23.5105 5.1021 19.2595C5.09445 19.2671 5.0868 19.2729 5.07914 19.2805C4.5397 19.7577 3.83191 20.0479 3.05143 20.0479C1.66264 20.0479 0.491923 19.1221 0.122726 17.8546C0.421145 20.2082 1.2571 22.3939 2.50624 24.2855C2.53876 24.3352 2.5732 24.3867 2.60763 24.4363C2.60763 24.4363 2.60954 24.4402 2.61146 24.4421L15.2579 43.2997L27.801 24.5948C27.801 24.5948 27.8048 24.591 27.8067 24.5871C27.8144 24.5757 27.824 24.5623 27.8316 24.549L28.0573 24.2111C29.2816 22.3328 30.1023 20.1662 30.395 17.8374C30.0315 19.1125 28.855 20.046 27.4586 20.046Z" fill="url(#paint2_linear_295_150)"/>
<path d="M8.56635 2.23901L6.10249 14.1045H0.109253C0.180032 13.5051 0.287158 12.9172 0.424889 12.3426C1.49996 7.89306 4.53388 4.20705 8.56443 2.24092L8.56635 2.23901Z" fill="#CAF4FF"/>
<path d="M30.4021 14.1045H24.4069L21.945 2.23901C26.1171 4.27386 29.2218 8.15267 30.1936 12.8122C30.2816 13.236 30.3523 13.6693 30.404 14.1064L30.4021 14.1045Z" fill="#CAF4FF"/>
<path d="M6.10227 14.1042V17.0019C6.10227 17.9086 5.70629 18.7199 5.07693 19.2792C4.53749 19.7564 3.82779 20.0465 3.05113 20.0465C1.66234 20.0465 0.48971 19.1207 0.120513 17.8533C0.120513 17.8533 0.120513 17.8526 0.120513 17.8513C0.0401697 17.2214 0 16.5762 0 15.9234C0 15.3068 0.0363443 14.6998 0.109036 14.1042H6.10227Z" fill="url(#paint3_linear_295_150)"/>
<path d="M18.3066 14.1042V17.0019C18.3066 18.6836 16.9408 20.0465 15.2555 20.0465C13.5702 20.0465 12.2043 18.6836 12.2043 17.0019V14.1042H18.3066Z" fill="url(#paint4_linear_295_150)"/>
<path d="M12.2046 14.1042V17.0019C12.2046 18.6836 10.8387 20.0465 9.15535 20.0465C7.47197 20.0465 6.10422 18.6836 6.10422 17.0019V14.1042H12.2046Z" fill="#CAF4FF"/>
<path d="M24.4069 14.1042V17.0019C24.4069 18.6836 23.041 20.0465 21.3577 20.0465C19.6743 20.0465 18.3065 18.6836 18.3065 17.0019V14.1042H24.4069Z" fill="#CAF4FF"/>
<path d="M30.5094 15.6619V16.1868C30.4998 16.7442 30.4596 17.294 30.3927 17.8342C30.3927 17.8342 30.3927 17.8361 30.3927 17.838C30.0292 19.1131 28.8528 20.0465 27.4582 20.0465C26.7715 20.0465 26.1383 19.8213 25.6295 19.4376C24.8872 18.8821 24.4071 17.9983 24.4071 17.0019V14.1042H30.4022C30.4634 14.6158 30.4998 15.135 30.5094 15.6619Z" fill="url(#paint5_linear_295_150)"/>
<path d="M48.9697 21.6562H55.4307V24.7682H45.0378V5.20337H48.9697V21.6562Z" fill="white"/>
<path d="M61.9755 23.6752C60.4404 22.8154 59.2229 21.6259 58.3231 20.1016C57.4234 18.5799 56.976 16.8552 56.976 14.9302C56.976 13.0051 57.4259 11.3109 58.3231 9.7866C59.2229 8.26484 60.4404 7.07278 61.9755 6.21298C63.5107 5.35319 65.1959 4.92456 67.031 4.92456C68.8661 4.92456 70.5741 5.35572 72.1016 6.21298C73.6267 7.07278 74.8365 8.26484 75.7261 9.7866C76.6157 11.3109 77.0605 13.0229 77.0605 14.9302C77.0605 16.8374 76.6157 18.5799 75.7261 20.1016C74.8365 21.6259 73.6241 22.8154 72.0889 23.6752C70.5538 24.535 68.8686 24.9637 67.0335 24.9637C65.1984 24.9637 63.5133 24.535 61.9781 23.6752H61.9755ZM70.1496 20.6621C71.0494 20.1295 71.7509 19.3686 72.2567 18.377C72.7625 17.3878 73.0141 16.2363 73.0141 14.9302C73.0141 13.624 72.7625 12.4776 72.2567 11.496C71.7509 10.5145 71.0494 9.76377 70.1496 9.23877C69.2499 8.71629 68.2103 8.45506 67.031 8.45506C65.8516 8.45506 64.807 8.71629 63.8996 9.23877C62.9922 9.76124 62.2856 10.5145 61.7798 11.496C61.274 12.4776 61.0224 13.6214 61.0224 14.9302C61.0224 16.2389 61.274 17.3878 61.7798 18.377C62.2856 19.3686 62.9922 20.1295 63.8996 20.6621C64.807 21.1948 65.8516 21.4611 67.031 21.4611C68.2103 21.4611 69.2499 21.1948 70.1496 20.6621Z" fill="white"/>
<path d="M80.3316 9.78663C81.2034 8.26486 82.3903 7.07789 83.9001 6.2257C85.4073 5.37604 87.0976 4.94995 88.9708 4.94995C91.1617 4.94995 93.0807 5.51047 94.7303 6.6315C96.3773 7.75254 97.5287 9.30473 98.1844 11.2856H93.6627C93.2129 10.3522 92.5825 9.64967 91.7666 9.18299C90.9508 8.71632 90.0103 8.48298 88.9428 8.48298C87.7991 8.48298 86.7849 8.74929 85.8953 9.2819C85.0057 9.81452 84.3119 10.5678 83.8162 11.5392C83.3206 12.5106 83.0715 13.6519 83.0715 14.9581C83.0715 16.2643 83.3206 17.3828 83.8162 18.3643C84.3119 19.3458 85.0057 20.1017 85.8953 20.6343C86.7849 21.1669 87.8016 21.4332 88.9428 21.4332C90.0103 21.4332 90.9508 21.1948 91.7666 20.718C92.5825 20.2411 93.2129 19.5361 93.6627 18.6027H98.1844C97.5287 20.6013 96.3823 22.1586 94.743 23.2695C93.1036 24.3803 91.1795 24.9383 88.9708 24.9383C87.0976 24.9383 85.4073 24.5148 83.9001 23.6626C82.3929 22.8129 81.2034 21.631 80.3316 20.1169C79.4598 18.6027 79.0251 16.8831 79.0251 14.9581C79.0251 13.0331 79.4598 11.3109 80.3316 9.78663Z" fill="white"/>
<path d="M104.63 24.2638C103.535 23.7971 102.668 23.125 102.033 22.2449C101.395 21.3674 101.067 20.33 101.049 19.1329H105.263C105.319 19.9369 105.604 20.571 106.12 21.0376C106.636 21.5043 107.342 21.7377 108.239 21.7377C109.137 21.7377 109.879 21.517 110.402 21.0782C110.926 20.6395 111.188 20.0637 111.188 19.3536C111.188 18.7753 111.01 18.2985 110.654 17.9231C110.298 17.5503 109.853 17.2561 109.32 17.0405C108.786 16.8249 108.051 16.5865 107.113 16.3253C105.84 15.9524 104.806 15.5821 104.01 15.2169C103.215 14.8517 102.531 14.3013 101.959 13.5632C101.387 12.8252 101.102 11.8386 101.102 10.606C101.102 9.44687 101.392 8.43744 101.974 7.57764C102.554 6.71784 103.37 6.05842 104.419 5.60189C105.469 5.14536 106.666 4.91455 108.016 4.91455C110.039 4.91455 111.681 5.40406 112.947 6.38559C114.21 7.36713 114.909 8.73672 115.038 10.4918H110.713C110.674 9.81971 110.39 9.26426 109.856 8.82295C109.322 8.38418 108.616 8.16352 107.736 8.16352C106.969 8.16352 106.356 8.35881 105.896 8.75194C105.436 9.14506 105.207 9.71572 105.207 10.4614C105.207 10.9839 105.38 11.4201 105.726 11.765C106.071 12.11 106.503 12.3915 107.017 12.6071C107.533 12.8227 108.257 13.0687 109.195 13.3502C110.469 13.723 111.508 14.0984 112.314 14.4712C113.12 14.8441 113.811 15.4046 114.393 16.1528C114.972 16.901 115.265 17.8825 115.265 19.0949C115.265 20.1423 114.993 21.1137 114.449 22.009C113.905 22.9069 113.109 23.6221 112.062 24.1547C111.012 24.6874 109.767 24.9537 108.326 24.9537C106.958 24.9537 105.728 24.7203 104.633 24.2536L104.63 24.2638Z" fill="white"/>
<path d="M132.004 5.20337V8.37117H126.778V24.7682H122.846V8.37117H117.621V5.20337H132.004Z" fill="white"/>
<path d="M138.915 23.6752C137.38 22.8154 136.162 21.6259 135.263 20.1016C134.363 18.5799 133.916 16.8552 133.916 14.9302C133.916 13.0051 134.365 11.3109 135.263 9.7866C136.162 8.26484 137.38 7.07278 138.915 6.21298C140.45 5.35319 142.135 4.92456 143.971 4.92456C145.806 4.92456 147.514 5.35572 149.041 6.21298C150.566 7.07278 151.776 8.26484 152.666 9.7866C153.555 11.3109 154 13.0229 154 14.9302C154 16.8374 153.555 18.5799 152.666 20.1016C151.776 21.6259 150.564 22.8154 149.028 23.6752C147.493 24.535 145.808 24.9637 143.973 24.9637C142.138 24.9637 140.453 24.535 138.918 23.6752H138.915ZM147.089 20.6621C147.989 20.1295 148.69 19.3686 149.196 18.377C149.702 17.3878 149.954 16.2363 149.954 14.9302C149.954 13.624 149.702 12.4776 149.196 11.496C148.69 10.5145 147.989 9.76377 147.089 9.23877C146.189 8.71629 145.15 8.45506 143.971 8.45506C142.791 8.45506 141.747 8.71629 140.839 9.23877C139.932 9.76124 139.225 10.5145 138.719 11.496C138.214 12.4776 137.962 13.6214 137.962 14.9302C137.962 16.2389 138.216 17.3878 138.719 18.377C139.225 19.3686 139.932 20.1295 140.839 20.6621C141.747 21.1948 142.791 21.4611 143.971 21.4611C145.15 21.4611 146.189 21.1948 147.089 20.6621Z" fill="white"/>
<path d="M45.0378 32.3237H45.9604L47.8057 35.4231H47.8845L49.7297 32.3237H50.6524L48.2479 36.2271V38.9637H47.4422V36.2271L45.0378 32.3237Z" fill="white"/>
<path d="M58.2775 35.6437C58.2775 36.3437 58.1504 36.9499 57.8962 37.4597C57.642 37.9695 57.2938 38.3626 56.8541 38.6391C56.4144 38.9155 55.9086 39.055 55.3393 39.055C54.7699 39.055 54.2667 38.9155 53.8244 38.6391C53.3822 38.3626 53.0339 37.9695 52.7823 37.4597C52.5307 36.9499 52.4011 36.3437 52.4011 35.6437C52.4011 34.9437 52.5281 34.3375 52.7823 33.8277C53.0365 33.3179 53.3847 32.9248 53.8244 32.6484C54.2667 32.3719 54.7699 32.2324 55.3393 32.2324C55.9086 32.2324 56.4118 32.3719 56.8541 32.6484C57.2964 32.9248 57.6446 33.3179 57.8962 33.8277C58.1478 34.3375 58.2775 34.9437 58.2775 35.6437ZM57.4972 35.6437C57.4972 35.068 57.4006 34.5835 57.2099 34.1879C57.0193 33.7922 56.7601 33.493 56.4322 33.2901C56.1068 33.0871 55.7408 32.9857 55.3393 32.9857C54.9377 32.9857 54.5717 33.0871 54.2463 33.2901C53.921 33.493 53.6617 33.7922 53.4686 34.1879C53.2754 34.5835 53.1814 35.068 53.1814 35.6437C53.1814 36.2194 53.2779 36.7039 53.4686 37.0995C53.6592 37.4952 53.9185 37.7945 54.2463 37.9974C54.5717 38.2003 54.9377 38.3017 55.3393 38.3017C55.7408 38.3017 56.1068 38.2003 56.4322 37.9974C56.7575 37.7945 57.0168 37.4952 57.2099 37.0995C57.4006 36.7039 57.4972 36.2194 57.4972 35.6437Z" fill="white"/>
<path d="M65.2772 32.3237H66.0829V36.7191C66.0829 37.1731 65.9762 37.5789 65.7627 37.934C65.5492 38.289 65.2493 38.568 64.8604 38.7735C64.4715 38.9789 64.0165 39.0804 63.4955 39.0804C62.9744 39.0804 62.5195 38.9789 62.1306 38.7735C61.7417 38.568 61.4418 38.289 61.2283 37.934C61.0148 37.5789 60.9081 37.1731 60.9081 36.7191V32.3237H61.7138V36.6557C61.7138 36.9803 61.7849 37.2669 61.9273 37.5206C62.0696 37.7742 62.2755 37.9695 62.5398 38.114C62.8042 38.2586 63.1219 38.3296 63.4929 38.3296C63.864 38.3296 64.1817 38.2586 64.4486 38.114C64.7155 37.9695 64.9188 37.7716 65.0612 37.5206C65.2035 37.2695 65.2747 36.9803 65.2747 36.6557V32.3237H65.2772Z" fill="white"/>
<path d="M68.9754 38.9637V32.3237H71.2248C71.7433 32.3237 72.1703 32.4125 72.5058 32.5875C72.8388 32.7625 73.0853 33.006 73.2454 33.3129C73.4056 33.6198 73.4869 33.9698 73.4869 34.3604C73.4869 34.7509 73.4056 35.0984 73.2454 35.4002C73.0853 35.702 72.8388 35.9405 72.5084 36.1129C72.1779 36.2854 71.7535 36.3716 71.2375 36.3716H69.4177V35.6462H71.2121C71.5679 35.6462 71.8551 35.593 72.0712 35.4915C72.2898 35.3875 72.4474 35.2404 72.5465 35.0477C72.6456 34.8575 72.6939 34.6267 72.6939 34.3629C72.6939 34.0991 72.6431 33.8658 72.5439 33.6654C72.4448 33.4676 72.2847 33.3129 72.0661 33.2038C71.8475 33.0948 71.5578 33.039 71.1994 33.039H69.7837V38.9662H68.9779L68.9754 38.9637ZM72.1068 35.981L73.7436 38.9637H72.8083L71.1968 35.981H72.1068Z" fill="white"/>
<path d="M79.958 38.9637V32.3237H80.7637V38.251H83.857V38.9637H79.958Z" fill="white"/>
<path d="M91.7413 35.6437C91.7413 36.3437 91.6142 36.9499 91.3601 37.4597C91.1059 37.9695 90.7577 38.3626 90.318 38.6391C89.8757 38.9155 89.3725 39.055 88.8031 39.055C88.2338 39.055 87.7305 38.9155 87.2883 38.6391C86.846 38.3626 86.4978 37.9695 86.2462 37.4597C85.9946 36.9499 85.8649 36.3437 85.8649 35.6437C85.8649 34.9437 85.992 34.3375 86.2462 33.8277C86.5004 33.3179 86.846 32.9248 87.2883 32.6484C87.7305 32.3719 88.2338 32.2324 88.8031 32.2324C89.3725 32.2324 89.8757 32.3719 90.318 32.6484C90.7602 32.9248 91.1084 33.3179 91.3601 33.8277C91.6117 34.3375 91.7413 34.9437 91.7413 35.6437ZM90.9636 35.6437C90.9636 35.068 90.867 34.5835 90.6763 34.1879C90.4857 33.7922 90.2265 33.493 89.8986 33.2901C89.5733 33.0871 89.2072 32.9857 88.8057 32.9857C88.4041 32.9857 88.0381 33.0871 87.7127 33.2901C87.3874 33.493 87.1281 33.7922 86.935 34.1879C86.7444 34.5835 86.6478 35.068 86.6478 35.6437C86.6478 36.2194 86.7444 36.7039 86.935 37.0995C87.1256 37.4952 87.3849 37.7945 87.7127 37.9974C88.0381 38.2003 88.4041 38.3017 88.8057 38.3017C89.2072 38.3017 89.5733 38.2003 89.8986 37.9974C90.2239 37.7945 90.4832 37.4952 90.6763 37.0995C90.8695 36.7039 90.9636 36.2194 90.9636 35.6437Z" fill="white"/>
<path d="M99.7299 34.3986H98.9242C98.8759 34.1678 98.7945 33.9649 98.6751 33.7899C98.5582 33.6149 98.4133 33.4678 98.2455 33.346C98.0778 33.2268 97.8922 33.1355 97.6889 33.0747C97.4856 33.0138 97.2721 32.9833 97.0509 32.9833C96.6468 32.9833 96.2834 33.0848 95.958 33.2877C95.6327 33.4906 95.3734 33.7899 95.1803 34.1855C94.9871 34.5812 94.8931 35.0656 94.8931 35.6414C94.8931 36.2171 94.9896 36.7015 95.1803 37.0972C95.3709 37.4928 95.6301 37.7921 95.958 37.995C96.2834 38.1979 96.6494 38.2994 97.0509 38.2994C97.2721 38.2994 97.483 38.2689 97.6889 38.2081C97.8922 38.1472 98.0778 38.0584 98.2455 37.9367C98.4133 37.8175 98.5556 37.6678 98.6751 37.4928C98.792 37.3178 98.8759 37.1149 98.9242 36.8841H99.7299C99.6689 37.224 99.5596 37.5283 99.3995 37.7947C99.2393 38.0635 99.0411 38.2892 98.8022 38.4769C98.5633 38.6646 98.2964 38.8066 98.0015 38.903C97.7067 38.9994 97.389 39.0501 97.0535 39.0501C96.4867 39.0501 95.9809 38.9106 95.5386 38.6342C95.0964 38.3577 94.7482 37.9646 94.4965 37.4548C94.2449 36.945 94.1153 36.3388 94.1153 35.6388C94.1153 34.9388 94.2424 34.3326 94.4965 33.8229C94.7507 33.3131 95.0989 32.9199 95.5386 32.6435C95.9809 32.367 96.4842 32.2275 97.0535 32.2275C97.389 32.2275 97.7042 32.2757 98.0015 32.3746C98.2964 32.471 98.5633 32.613 98.8022 32.8007C99.0411 32.9884 99.2393 33.2142 99.3995 33.4805C99.5596 33.7468 99.6714 34.0511 99.7299 34.3935V34.3986Z" fill="white"/>
<path d="M102.584 38.9637H101.74L104.183 32.3237H105.014L107.457 38.9637H106.613L104.625 33.3737H104.574L102.587 38.9637H102.584ZM102.894 36.3691H106.3V37.0818H102.894V36.3691Z" fill="white"/>
<path d="M109.777 38.9637V32.3237H110.583V38.251H113.676V38.9637H109.777Z" fill="white"/>
<path d="M123.698 33.9827C123.66 33.6555 123.5 33.3993 123.223 33.2167C122.946 33.0341 122.605 32.9453 122.204 32.9453C121.909 32.9453 121.652 32.9935 121.431 33.0873C121.212 33.1837 121.039 33.3131 120.917 33.4805C120.795 33.6479 120.734 33.8356 120.734 34.0486C120.734 34.2261 120.778 34.3783 120.864 34.5051C120.951 34.6319 121.06 34.7359 121.195 34.8196C121.329 34.9033 121.469 34.9718 121.616 35.0251C121.764 35.0783 121.899 35.1214 122.023 35.1519L122.699 35.3345C122.872 35.3801 123.065 35.4435 123.279 35.5222C123.492 35.6033 123.696 35.7099 123.894 35.8494C124.092 35.9889 124.252 36.1613 124.379 36.3769C124.506 36.5925 124.57 36.8537 124.57 37.1657C124.57 37.5258 124.476 37.8479 124.288 38.1396C124.1 38.4287 123.828 38.6595 123.469 38.8295C123.111 38.9994 122.676 39.0856 122.165 39.0856C121.688 39.0856 121.276 39.0096 120.93 38.8548C120.582 38.7001 120.31 38.4871 120.112 38.2132C119.913 37.9392 119.802 37.6197 119.776 37.257H120.607C120.628 37.5081 120.714 37.7135 120.862 37.8784C121.009 38.0407 121.2 38.1624 121.426 38.2411C121.655 38.3197 121.901 38.3603 122.165 38.3603C122.473 38.3603 122.75 38.3095 122.994 38.2106C123.238 38.1092 123.434 37.9697 123.576 37.7896C123.718 37.6095 123.79 37.399 123.79 37.1555C123.79 36.9349 123.729 36.7548 123.604 36.6178C123.479 36.4809 123.319 36.3668 123.116 36.2805C122.913 36.1943 122.697 36.1182 122.463 36.0523L121.644 35.8189C121.123 35.6693 120.712 35.4562 120.409 35.1798C120.107 34.9033 119.954 34.5406 119.954 34.0943C119.954 33.7214 120.056 33.3968 120.259 33.1203C120.463 32.8439 120.734 32.6257 121.078 32.471C121.421 32.3163 121.805 32.2402 122.229 32.2402C122.653 32.2402 123.04 32.3163 123.373 32.4685C123.706 32.6207 123.97 32.8287 124.168 33.0924C124.364 33.3562 124.468 33.6555 124.478 33.9903H123.698V33.9827Z" fill="white"/>
<path d="M126.812 33.0364V32.3237H131.803V33.0364H129.712V38.9637H128.906V33.0364H126.814H126.812Z" fill="white"/>
<path d="M139.675 35.6437C139.675 36.3437 139.548 36.9499 139.294 37.4597C139.04 37.9695 138.691 38.3626 138.252 38.6391C137.81 38.9155 137.306 39.055 136.737 39.055C136.168 39.055 135.664 38.9155 135.222 38.6391C134.78 38.3626 134.432 37.9695 134.18 37.4597C133.928 36.9499 133.799 36.3437 133.799 35.6437C133.799 34.9437 133.926 34.3375 134.18 33.8277C134.434 33.3179 134.782 32.9248 135.222 32.6484C135.662 32.3719 136.168 32.2324 136.737 32.2324C137.306 32.2324 137.81 32.3719 138.252 32.6484C138.694 32.9248 139.042 33.3179 139.294 33.8277C139.545 34.3375 139.675 34.9437 139.675 35.6437ZM138.895 35.6437C138.895 35.068 138.798 34.5835 138.608 34.1879C138.417 33.7922 138.158 33.493 137.832 33.2901C137.507 33.0871 137.141 32.9857 136.739 32.9857C136.338 32.9857 135.972 33.0871 135.647 33.2901C135.321 33.493 135.062 33.7922 134.871 34.1879C134.681 34.5835 134.584 35.068 134.584 35.6437C134.584 36.2194 134.681 36.7039 134.871 37.0995C135.062 37.4952 135.321 37.7945 135.647 37.9974C135.972 38.2003 136.338 38.3017 136.739 38.3017C137.141 38.3017 137.507 38.2003 137.832 37.9974C138.158 37.7945 138.417 37.4952 138.608 37.0995C138.798 36.7039 138.895 36.2194 138.895 35.6437Z" fill="white"/>
<path d="M142.308 38.9637V32.3237H144.558C145.079 32.3237 145.503 32.4125 145.839 32.5875C146.174 32.7625 146.418 33.006 146.581 33.3129C146.741 33.6198 146.822 33.9698 146.822 34.3604C146.822 34.7509 146.741 35.0984 146.581 35.4002C146.421 35.702 146.174 35.9405 145.844 36.1129C145.513 36.2854 145.089 36.3716 144.573 36.3716H142.753V35.6462H144.547C144.903 35.6462 145.19 35.593 145.407 35.4915C145.625 35.3875 145.783 35.2404 145.882 35.0477C145.981 34.8575 146.029 34.6267 146.029 34.3629C146.029 34.0991 145.978 33.8658 145.879 33.6654C145.78 33.4676 145.62 33.3129 145.401 33.2038C145.183 33.0948 144.893 33.039 144.535 33.039H143.119V38.9662H142.313L142.308 38.9637ZM145.44 35.981L147.076 38.9637H146.141L144.53 35.981H145.44Z" fill="white"/>
<path d="M149.438 38.9637V32.3237H153.454V33.0364H150.243V35.281H153.245V35.9937H150.243V38.251H153.504V38.9637H149.438Z" fill="white"/>
<defs>
<linearGradient id="paint0_linear_295_150" x1="19.3916" y1="-0.359345" x2="21.3175" y2="13.8704" gradientUnits="userSpaceOnUse">
<stop offset="0.13" stop-color="#03B1FD"/>
<stop offset="0.17" stop-color="#02A7FD"/>
<stop offset="0.33" stop-color="#0185FD"/>
<stop offset="0.49" stop-color="#006BFD"/>
<stop offset="0.65" stop-color="#0058FD"/>
<stop offset="0.82" stop-color="#004DFD"/>
<stop offset="1" stop-color="#004AFD"/>
</linearGradient>
<linearGradient id="paint1_linear_295_150" x1="9.94922" y1="-1.00454" x2="9.06729" y2="16.7595" gradientUnits="userSpaceOnUse">
<stop offset="0.13" stop-color="#03B1FD"/>
<stop offset="0.17" stop-color="#02A7FD"/>
<stop offset="0.33" stop-color="#0185FD"/>
<stop offset="0.49" stop-color="#006BFD"/>
<stop offset="0.65" stop-color="#0058FD"/>
<stop offset="0.82" stop-color="#004DFD"/>
<stop offset="1" stop-color="#004AFD"/>
</linearGradient>
<linearGradient id="paint2_linear_295_150" x1="15.2579" y1="20.5213" x2="15.2579" y2="43.7368" gradientUnits="userSpaceOnUse">
<stop offset="0.13" stop-color="#03B1FD"/>
<stop offset="0.17" stop-color="#02A7FD"/>
<stop offset="0.33" stop-color="#0185FD"/>
<stop offset="0.49" stop-color="#006BFD"/>
<stop offset="0.65" stop-color="#0058FD"/>
<stop offset="0.82" stop-color="#004DFD"/>
<stop offset="1" stop-color="#004AFD"/>
</linearGradient>
<linearGradient id="paint3_linear_295_150" x1="3.11809" y1="10.5595" x2="2.95808" y2="24.7061" gradientUnits="userSpaceOnUse">
<stop offset="0.13" stop-color="#03B1FD"/>
<stop offset="0.17" stop-color="#02A7FD"/>
<stop offset="0.33" stop-color="#0185FD"/>
<stop offset="0.49" stop-color="#006BFD"/>
<stop offset="0.65" stop-color="#0058FD"/>
<stop offset="0.82" stop-color="#004DFD"/>
<stop offset="1" stop-color="#004AFD"/>
</linearGradient>
<linearGradient id="paint4_linear_295_150" x1="15.2306" y1="12.9093" x2="15.3106" y2="21.3503" gradientUnits="userSpaceOnUse">
<stop offset="0.13" stop-color="#03B1FD"/>
<stop offset="0.17" stop-color="#02A7FD"/>
<stop offset="0.33" stop-color="#0185FD"/>
<stop offset="0.49" stop-color="#006BFD"/>
<stop offset="0.65" stop-color="#0058FD"/>
<stop offset="0.82" stop-color="#004DFD"/>
<stop offset="1" stop-color="#004AFD"/>
</linearGradient>
<linearGradient id="paint5_linear_295_150" x1="27.3913" y1="12.0102" x2="27.5513" y2="22.299" gradientUnits="userSpaceOnUse">
<stop offset="0.13" stop-color="#03B1FD"/>
<stop offset="0.17" stop-color="#02A7FD"/>
<stop offset="0.33" stop-color="#0185FD"/>
<stop offset="0.49" stop-color="#006BFD"/>
<stop offset="0.65" stop-color="#0058FD"/>
<stop offset="0.82" stop-color="#004DFD"/>
<stop offset="1" stop-color="#004AFD"/>
</linearGradient>
</defs>
</svg>
