<svg width="55" height="55" viewBox="0 0 55 55" fill="none" xmlns="http://www.w3.org/2000/svg">
<rect y="0.169312" width="54.4026" height="54.4026" rx="27.2013" fill="#FCFCFC"/>
<rect x="0.618211" y="0.787522" width="53.1661" height="53.1661" rx="26.5831" stroke="black" stroke-opacity="0.1" stroke-width="1.23642"/>
<path d="M37.0923 17.4792L30.0737 36.9155C30.0263 37.0189 29.9502 37.1065 29.8545 37.1679C29.7588 37.2293 29.6475 37.262 29.5338 37.262C29.42 37.262 29.3087 37.2293 29.213 37.1679C29.1173 37.1065 29.0412 37.0189 28.9939 36.9155L25.2146 29.357L17.656 25.5777C17.5527 25.5303 17.4651 25.4543 17.4036 25.3586C17.3422 25.2628 17.3096 25.1515 17.3096 25.0378C17.3096 24.9241 17.3422 24.8128 17.4036 24.717C17.4651 24.6213 17.5527 24.5453 17.656 24.4979L37.0923 17.4792Z" fill="#2677F9"/>
</svg>
