<svg width="36" height="36" viewBox="0 0 36 36" fill="none" xmlns="http://www.w3.org/2000/svg">
<path d="M22 16.5C22 14.5625 20.9375 12.75 19.25 11.75C17.5312 10.7812 15.4375 10.7812 13.75 11.75C12.0312 12.75 11 14.5625 11 16.5C11 18.4688 12.0312 20.2812 13.75 21.2812C15.4375 22.25 17.5312 22.25 19.25 21.2812C20.9375 20.2812 22 18.4688 22 16.5ZM20.7188 21.4375C19.5938 22.4375 18.0938 23 16.5 23C12.9062 23 10 20.0938 10 16.5C10 12.9375 12.9062 10 16.5 10C20.0625 10 23 12.9375 23 16.5C23 18.125 22.4062 19.5938 21.4375 20.75L25.9375 25.25L25.2188 25.9688L20.7188 21.4375Z" fill="#828282"/>
</svg>
