<svg width="56" height="55" viewBox="0 0 56 55" fill="none" xmlns="http://www.w3.org/2000/svg">
<rect x="0.766602" y="0.169312" width="54.4026" height="54.4026" rx="27.2013" fill="#FCFCFC"/>
<rect x="1.38481" y="0.787522" width="53.1661" height="53.1661" rx="26.5831" stroke="black" stroke-opacity="0.1" stroke-width="1.23642"/>
<g clip-path="url(#clip0_375_3470)">
<path d="M13.8199 42.2076C13.6533 42.2076 13.4912 42.1417 13.3709 42.0201C13.2125 41.8598 13.1513 41.6271 13.2109 41.4095L15.14 34.365C13.939 32.1932 13.3057 29.7363 13.3066 27.2424C13.31 19.1317 19.9104 12.5334 28.0203 12.5334C31.9539 12.535 35.6501 14.0673 38.4282 16.8474C41.2058 19.6278 42.7349 23.3237 42.7338 27.2541C42.7302 35.365 36.1298 41.9637 28.0203 41.9637C28.0203 41.9637 28.0142 41.9637 28.014 41.9637C25.6452 41.9628 23.2968 41.3855 21.2058 40.292L13.9799 42.187C13.927 42.2008 13.8731 42.2076 13.8199 42.2076Z" fill="#E3E3E3"/>
<path d="M13.8203 41.5751L15.818 34.28C14.5858 32.1448 13.9376 29.7228 13.9385 27.2415C13.9417 19.4791 20.2586 13.1638 28.0208 13.1638C31.7875 13.1654 35.3231 14.6315 37.9819 17.2926C40.6405 19.9536 42.1041 23.4909 42.1028 27.2529C42.0994 35.0151 35.7816 41.3313 28.0208 41.3313C28.0203 41.3313 28.021 41.3313 28.0208 41.3313H28.0146C25.6579 41.3304 23.3423 40.7393 21.2855 39.6175L13.8203 41.5751ZM21.6312 37.0689L22.0588 37.3223C23.8555 38.3886 25.9155 38.9525 28.0162 38.9537H28.0208C34.4717 38.9537 39.7222 33.704 39.7249 27.252C39.7261 24.1252 38.5099 21.185 36.3 18.9734C34.09 16.7617 31.1516 15.543 28.0251 15.5417C21.5689 15.5417 16.3186 20.7906 16.3161 27.2425C16.3152 29.4534 16.9337 31.6065 18.1055 33.4697L18.384 33.9125L17.2013 38.2303L21.6312 37.0689Z" fill="white"/>
<path d="M14.3096 41.0842L16.2382 34.0413C15.0483 31.9802 14.4228 29.6417 14.4234 27.2467C14.4264 19.753 20.5248 13.6564 28.0178 13.6564C31.6546 13.658 35.068 15.0734 37.6342 17.6423C40.2011 20.2112 41.6138 23.6259 41.6124 27.2573C41.6093 34.7512 35.5106 40.8485 28.0185 40.8485C28.0178 40.8485 28.0187 40.8485 28.0185 40.8485H28.0124C25.7373 40.8476 23.5017 40.2766 21.5162 39.1945L14.3096 41.0842Z" fill="url(#paint0_linear_375_3470)"/>
<path d="M13.8203 41.5751L15.818 34.28C14.5858 32.1448 13.9376 29.7228 13.9385 27.2415C13.9417 19.4791 20.2586 13.1638 28.0208 13.1638C31.7875 13.1654 35.3231 14.6315 37.9819 17.2926C40.6405 19.9536 42.1041 23.4909 42.1028 27.2529C42.0994 35.0151 35.7816 41.3313 28.0208 41.3313C28.0203 41.3313 28.021 41.3313 28.0208 41.3313H28.0146C25.6579 41.3304 23.3423 40.7393 21.2855 39.6175L13.8203 41.5751ZM21.6312 37.0689L22.0588 37.3223C23.8555 38.3886 25.9155 38.9525 28.0162 38.9537H28.0208C34.4717 38.9537 39.7222 33.704 39.7249 27.252C39.7261 24.1252 38.5099 21.185 36.3 18.9734C34.09 16.7617 31.1516 15.543 28.0251 15.5417C21.5689 15.5417 16.3186 20.7906 16.3161 27.2425C16.3152 29.4534 16.9337 31.6065 18.1055 33.4697L18.384 33.9125L17.2013 38.2303L21.6312 37.0689Z" fill="#F5F7F9"/>
<path fill-rule="evenodd" clip-rule="evenodd" d="M24.5014 21.3555C24.2378 20.7696 23.9603 20.7578 23.7094 20.7476C23.5043 20.7388 23.2696 20.7393 23.0352 20.7393C22.8007 20.7393 22.4194 20.8276 22.0971 21.1796C21.7744 21.5316 20.8652 22.3829 20.8652 24.1141C20.8652 25.8456 22.1263 27.5185 22.3022 27.7534C22.4781 27.9882 24.7364 31.6545 28.3127 33.0649C31.2851 34.2372 31.8898 34.004 32.535 33.9454C33.1802 33.8867 34.6167 33.0941 34.9099 32.2725C35.2033 31.4509 35.2033 30.7469 35.1152 30.5995C35.0272 30.453 34.7926 30.3649 34.4408 30.189C34.089 30.0131 32.3591 29.1616 32.0365 29.0444C31.7139 28.9269 31.4793 28.8684 31.2448 29.2207C31.01 29.5725 30.3363 30.3649 30.1309 30.5995C29.9256 30.8347 29.7202 30.8641 29.3684 30.688C29.0166 30.5116 27.8833 30.1403 26.5389 28.9416C25.493 28.009 24.7866 26.8571 24.5813 26.5049C24.3762 26.1531 24.5779 25.9792 24.7359 25.787C25.0205 25.4408 25.498 24.8185 25.6152 24.5839C25.7325 24.3489 25.6739 24.1436 25.586 23.9674C25.498 23.7915 24.814 22.0515 24.5014 21.3555Z" fill="#F5F7F9"/>
</g>
<defs>
<linearGradient id="paint0_linear_375_3470" x1="27.961" y1="13.6564" x2="27.961" y2="41.0842" gradientUnits="userSpaceOnUse">
<stop stop-color="#61E86F"/>
<stop offset="1" stop-color="#23B33A"/>
</linearGradient>
<clipPath id="clip0_375_3470">
<rect width="29.6741" height="29.6741" fill="white" transform="translate(13.1309 12.5334)"/>
</clipPath>
</defs>
</svg>
