<svg width="16" height="17" viewBox="0 0 16 17" fill="none" xmlns="http://www.w3.org/2000/svg">
<path d="M13.4865 3.09811C14.9147 4.52634 15.7989 6.39663 15.7989 8.43696C15.7989 12.5856 12.3303 15.9862 8.14766 15.9862C6.88946 15.9862 5.66526 15.6461 4.54309 15.068L0.564453 16.0882L1.61862 12.1776C0.972518 11.0554 0.598459 9.76317 0.598459 8.40295C0.598459 4.25429 3.999 0.853752 8.14766 0.853752C10.188 0.853752 12.0923 1.66988 13.4865 3.09811ZM8.14766 14.694C11.6162 14.694 14.5067 11.8715 14.5067 8.43696C14.5067 6.73669 13.7926 5.17244 12.6024 3.98225C11.4122 2.79206 9.84793 2.14596 8.18166 2.14596C4.71311 2.14596 1.89066 4.96841 1.89066 8.40295C1.89066 9.59314 2.23072 10.7493 2.84282 11.7695L3.01284 12.0075L2.36674 14.3199L4.74712 13.6738L4.95115 13.8098C5.93731 14.3879 7.02548 14.694 8.14766 14.694ZM11.6162 10.0012C11.7862 10.1032 11.9223 10.1372 11.9563 10.2392C12.0243 10.3073 12.0243 10.6813 11.8542 11.1234C11.6842 11.5655 10.9361 11.9735 10.596 12.0075C9.98395 12.1095 9.50787 12.0755 8.31769 11.5314C6.41338 10.7153 5.18919 8.81102 5.08717 8.709C4.98516 8.57298 4.33905 7.68884 4.33905 6.73669C4.33905 5.81854 4.81513 5.37647 4.98516 5.17244C5.15518 4.96841 5.35922 4.9344 5.49524 4.9344C5.59725 4.9344 5.73327 4.9344 5.83529 4.9344C5.97131 4.9344 6.10733 4.9004 6.27736 5.27445C6.41338 5.64851 6.82145 6.56666 6.85545 6.66868C6.88946 6.77069 6.92346 6.87271 6.85545 7.00873C6.5154 7.72284 6.10733 7.68884 6.31137 8.02889C7.05949 9.28709 7.7736 9.72916 8.89578 10.2732C9.0658 10.3753 9.16782 10.3413 9.30384 10.2392C9.40586 10.1032 9.77992 9.66115 9.88193 9.49112C10.018 9.28709 10.154 9.3211 10.324 9.38911C10.494 9.45712 11.4122 9.89919 11.6162 10.0012Z" fill="#828282"/>
</svg>
